<svg version="1.1" id="Layer_1" xmlns="http://www.w3.org/2000/svg" xmlns:xlink="http://www.w3.org/1999/xlink" x="0px" y="0px" viewBox="0 0 500 500" style="width: 176px;" xml:space="preserve" data-imageid="doctor-68" imageName="Doctor" class="illustrations_image">
<style type="text/css">
	.st0_doctor-68{fill:#FFFFFF;}
	.st1_doctor-68{fill:#D1D3D4;}
	.st2_doctor-68{fill:#231F20;}
	.st3_doctor-68{fill:#68E1FD;}
</style>
<g id="books_doctor-68">
	<rect x="173.6" y="219.1" class="st0_doctor-68" width="84.4" height="17.2"/>
	<path class="st1_doctor-68" d="M258,237h-84.4c-0.4,0-0.7-0.3-0.8-0.7c0,0,0,0,0,0v-17.1c0-0.4,0.3-0.8,0.8-0.8H258c0.4,0,0.8,0.3,0.8,0.8&#10;&#9;&#9;v17.2C258.7,236.7,258.4,237,258,237z M174.4,235.5h82.9v-15.6h-82.9L174.4,235.5z"/>
	<rect x="168.1" y="206.2" class="st0_doctor-68" width="77.1" height="12.9"/>
	<path class="st1_doctor-68" d="M245.1,219.9h-77.1c-0.4,0-0.8-0.3-0.8-0.8v-12.9c0-0.4,0.3-0.7,0.8-0.7h77.1c0.4,0,0.7,0.3,0.7,0.7&#10;&#9;&#9;c0,0,0,0,0,0v12.9C245.9,219.5,245.6,219.9,245.1,219.9C245.1,219.9,245.1,219.9,245.1,219.9z M168.8,218.4h75.6V207h-75.6V218.4z"/>
</g>
<g id="floor_doctor-68">
	<path class="st1_doctor-68" d="M455.2,368.5H44.8c-0.4,0-0.8-0.3-0.8-0.8s0.3-0.8,0.8-0.8h410.5c0.4,0,0.8,0.3,0.8,0.8&#10;&#9;&#9;S455.6,368.5,455.2,368.5z"/>
</g>
<g id="desk_doctor-68">
	<rect x="123.9" y="245.2" class="st0_doctor-68" width="303.1" height="138.3"/>
	<path class="st2_doctor-68" d="M427.1,384.1H124c-0.4,0-0.7-0.3-0.7-0.7c0,0,0,0,0,0V245.2c0-0.4,0.3-0.7,0.7-0.7c0,0,0,0,0,0h303.1&#10;&#9;&#9;c0.4,0,0.7,0.3,0.7,0.7l0,0v138.3C427.8,383.8,427.4,384.1,427.1,384.1C427.1,384.1,427.1,384.1,427.1,384.1z M124.6,382.8h301.7&#10;&#9;&#9;V245.9H124.6L124.6,382.8z"/>
	<path class="st0_doctor-68" d="M123.3,236.4h304.4c2.4,0,4.4,2,4.4,4.4v0c0,2.4-2,4.4-4.4,4.4H123.3c-2.4,0-4.4-2-4.4-4.4v0&#10;&#9;&#9;C118.9,238.3,120.9,236.4,123.3,236.4z"/>
	<path class="st2_doctor-68" d="M427.7,245.9H123.3c-2.8,0-5.1-2.3-5.1-5.1c0-2.8,2.3-5.1,5.1-5.1h304.4c2.8,0,5.1,2.3,5.1,5.1&#10;&#9;&#9;C432.8,243.6,430.5,245.8,427.7,245.9z M123.3,237.1c-2.1-0.1-3.8,1.5-3.9,3.5c-0.1,2.1,1.5,3.8,3.5,3.9c0.1,0,0.3,0,0.4,0h304.4&#10;&#9;&#9;c2.1,0.1,3.8-1.5,3.9-3.5c0.1-2.1-1.5-3.8-3.5-3.9c-0.1,0-0.3,0-0.4,0H123.3z"/>
</g>
<g id="plant_doctor-68">
	<path class="st2_doctor-68" d="M90,316.5c0.2-2.2-0.3-4.3-1.3-6.2c-0.8-1.4-2.1-2.5-2.8-4c-1.2-2.5-0.4-5.5-0.6-8.3c-0.2-2.3-1.3-4.5-2.9-6.2&#10;&#9;&#9;c-1.5-1.5-3.3-2.5-4.7-4c-2.3-2.5-2.9-6.1-4.2-9.2c-1.8-4.4-5-8.2-9.1-10.7c2.5,5-3.2,11.4-0.6,16.4c0.8,1.6,2.4,2.7,3,4.4&#10;&#9;&#9;c1.4,4-3.4,8.4-1.8,12.4c0.8,2,2.9,3.1,3.9,5c1.3,2.6,0.3,5.6,0.4,8.5c0.2,4,2.6,7.5,5.4,10.3c1.8,1.7,3.8,3.2,5.7,4.7&#10;&#9;&#9;c2.3,1.9,3.3,3.8,5.3,0.8C88.3,326.2,89.9,321.4,90,316.5z"/>
	<path class="st2_doctor-68" d="M92.6,318.8c-0.7-3.1-1.3-6.4,0-9.3c1.4-3.3,5-5.6,5.4-9.1c0.3-2.3-0.9-4.7-0.4-7s2.3-3.9,3.9-5.6&#10;&#9;&#9;c3.6-3.9,5.7-8.9,6-14.2c2.2,2.9,4.5,6,5.7,9.5s1.2,7.6-0.8,10.7c-0.6,0.7-1.1,1.5-1.4,2.4c-0.7,2.3,1.2,4.4,2.2,6.5&#10;&#9;&#9;c1.2,2.5,0.9,5.5-0.7,7.7c-2,2.5-6,3.5-7,6.6c-0.3,1.1-0.4,2.3-0.3,3.5c-0.4,4.2-3.4,7.7-7.4,8.8c-2.4,0.6-2.3-0.4-2.8-2.4&#10;&#9;&#9;C94.3,324.1,93.3,321.5,92.6,318.8z"/>
	<path class="st2_doctor-68" d="M85,296.6c-1.7-5.9-2.4-12.1-4.2-18c-1.5-4.6-3.4-9.1-5.6-13.4l7.3,3.1c2.3,1,4.9,2.2,6,4.5&#10;&#9;&#9;c1.9,4-1.5,9.1,0.5,13.1c0.7,1.4,2,2.4,2.9,3.6c2.2,3,1.8,7.2,0.6,10.7c-0.5,1.5-2.7,9.4-4.7,7.2c-0.8-0.9-0.9-4.1-1.2-5.3&#10;&#9;&#9;C86.1,300.3,85.5,298.5,85,296.6z"/>
	<path class="st2_doctor-68" d="M88.8,375.1c-1.5-9.7-6-43.7-6.1-44l1.5-0.2c0.1,0.4,4.6,34.4,6.1,44L88.8,375.1z"/>
	<path class="st2_doctor-68" d="M90.8,384.2h-1.5c0.1-11.5,4.9-55.4,7.7-58.4l1.1,1C96,329.2,90.9,371.5,90.8,384.2z"/>
	<path class="st2_doctor-68" d="M93.3,382.1l-1.5-0.1c1.1-24.7-4.2-76.6-4.2-77.1l1.5-0.2C89.1,305.2,94.4,357.2,93.3,382.1z"/>
	<path class="st0_doctor-68" d="M76.4,347.5h27.3l-1.9,31c-0.3,5.4-4.3,9.5-9.1,9.5h-5.3c-4.8,0-8.8-4.2-9.1-9.5L76.4,347.5z"/>
	<path class="st2_doctor-68" d="M92.7,388.7h-5.3c-5.2,0-9.5-4.5-9.9-10.2l-1.9-31c0-0.2,0.1-0.4,0.2-0.6c0.2-0.2,0.4-0.2,0.6-0.2h27.3&#10;&#9;&#9;c0.2,0,0.4,0.1,0.6,0.2c0.1,0.2,0.2,0.4,0.2,0.6l-1.9,31C102.2,384.2,97.9,388.7,92.7,388.7z M77.2,348.2l1.9,30.2&#10;&#9;&#9;c0.3,4.9,4,8.8,8.3,8.8h5.3c4.4,0,8-3.9,8.3-8.8l1.9-30.2H77.2z"/>
</g>
<g id="BG_Poster_doctor-68">
	<rect x="102.9" y="85.3" class="st0_doctor-68" width="94.2" height="103.7"/>
	<path class="st1_doctor-68" d="M197.1,189.8h-94.2c-0.4,0-0.7-0.3-0.8-0.7c0,0,0,0,0,0V85.3c0-0.4,0.3-0.8,0.8-0.8h94.2&#10;&#9;&#9;c0.4,0,0.7,0.3,0.8,0.8V189C197.8,189.4,197.5,189.8,197.1,189.8C197.1,189.8,197.1,189.8,197.1,189.8z M103.6,188.3h92.7V86h-92.7&#10;&#9;&#9;V188.3z"/>
	<path class="st1_doctor-68" d="M124.6,169.7c-0.1,0-0.2,0-0.3-0.1l-3.4-1.6c-0.3-0.1-0.5-0.5-0.4-0.8c1.6-8.3,6.6-12.3,11.9-16.5&#10;&#9;&#9;c3.5-2.6,6.6-5.6,9.4-8.9c4.7-6.2,4.1-9.4,3.4-13.1c-0.6-2.5-0.6-5.2-0.1-7.7c1.9-8.1,10-16.7,10.4-17c0.2-0.2,0.6-0.3,0.9-0.1&#10;&#9;&#9;l4.9,2.8c0.2,0.1,0.4,0.3,0.4,0.6c0,0.2-0.1,0.5-0.2,0.6c-2.7,2.3-4.5,5.4-5.4,8.8c3.9-0.3,17.7-0.5,20.8,9.9&#10;&#9;&#9;c3.8,12.8-2.1,30.1-20.5,37c-12.6,4.7-15.4-0.1-17.5-3.6c-1.2-2-1.8-3-3.6-2.5c-6,1.7-9.8,11.8-9.9,11.9c-0.1,0.2-0.2,0.4-0.4,0.4&#10;&#9;&#9;C124.8,169.7,124.7,169.7,124.6,169.7z M122,166.9l2.2,1c1-2.5,4.8-10.4,10.6-12c2.9-0.8,4.1,1.2,5.3,3.2c1.9,3.2,4.3,7.3,15.6,3&#10;&#9;&#9;c19.7-7.4,22.5-25.5,19.6-35.2c-3.2-10.7-20-8.7-20.2-8.7c-0.4,0.1-0.8-0.2-0.8-0.6c0-0.1,0-0.1,0-0.2c0.7-3.8,2.5-7.3,5.3-9.9&#10;&#9;&#9;l-3.5-2c-1.7,1.8-8,9.2-9.6,15.9c-0.5,2.4-0.4,4.8,0.1,7.1c0.7,3.7,1.3,7.6-3.7,14.2c-2.8,3.5-6,6.6-9.6,9.2&#10;&#9;&#9;C128.1,156,123.6,159.5,122,166.9z"/>
	<path class="st1_doctor-68" d="M186,168.3h-17.5c-0.4,0-0.8-0.3-0.8-0.8s0.3-0.8,0.8-0.8H186c0.4,0,0.8,0.3,0.8,0.8S186.4,168.3,186,168.3z"/>
	<path class="st1_doctor-68" d="M186,173.5h-17.5c-0.4,0-0.8-0.3-0.8-0.8s0.3-0.8,0.8-0.8H186c0.4,0,0.8,0.3,0.8,0.8S186.4,173.5,186,173.5z"/>
	<path class="st1_doctor-68" d="M181.2,179.3h-13c-0.4,0-0.8-0.3-0.8-0.8s0.3-0.8,0.8-0.8h13c0.4,0,0.8,0.3,0.8,0.8S181.6,179.3,181.2,179.3z"/>
	<path class="st1_doctor-68" d="M131.3,101.6H111c-0.4,0-0.8-0.3-0.8-0.8s0.3-0.8,0.8-0.8l0,0h20.4c0.4,0,0.8,0.3,0.8,0.8&#10;&#9;&#9;S131.8,101.6,131.3,101.6L131.3,101.6z"/>
	<path class="st1_doctor-68" d="M131.3,108.9H111c-0.4,0-0.8-0.3-0.8-0.8s0.3-0.8,0.8-0.8l0,0h20.4c0.4,0,0.8,0.3,0.8,0.8&#10;&#9;&#9;S131.8,108.9,131.3,108.9L131.3,108.9z"/>
	<path class="st1_doctor-68" d="M187.4,94.3H111c-0.4,0-0.8-0.3-0.8-0.8s0.3-0.8,0.8-0.8l0,0h76.5c0.4,0,0.8,0.3,0.8,0.8&#10;&#9;&#9;S187.9,94.3,187.4,94.3L187.4,94.3z"/>
</g>
<g id="Character_doctor-68">
	<path class="st0_doctor-68" d="M333.1,392.7l-1.8,22c0,0-32.1,5.7-40.5,5.7s-7.6-5,5.2-12.6c10-6,17.7-6.7,17.7-6.7l1-10.3L333.1,392.7z"/>
	<path class="st2_doctor-68" d="M290.9,421.1c-4.4,0-5.7-1.4-6.1-2.6c-0.9-3.4,5.4-8,10.9-11.3c5.3-3.3,11.3-5.6,17.5-6.7l1-9.7&#10;&#9;&#9;c0-0.4,0.4-0.7,0.7-0.6c0,0,0,0,0,0l18.2,1.8c0.4,0,0.6,0.4,0.6,0.7l-1.8,22c0,0.3-0.3,0.6-0.6,0.6&#10;&#9;&#9;C330.2,415.6,299.2,421.1,290.9,421.1z M315.5,391.6l-0.9,9.6c0,0.3-0.3,0.6-0.6,0.6c-0.1,0-7.7,0.8-17.5,6.6&#10;&#9;&#9;c-8.2,4.9-10.7,8.3-10.3,9.8c0.3,1,2,1.5,4.7,1.5c7.6,0,35.6-4.9,39.8-5.6l1.7-20.9L315.5,391.6z"/>
	<path class="st0_doctor-68" d="M377,393c0,0,1.9,8,1.1,14.1s-1.2,14.2,0.2,19.1s7.7,10.1,12.6,6.8s4.6-18.8,3.8-22.9s-3-14.7-2.7-20.4&#10;&#9;&#9;L377,393z"/>
	<path class="st2_doctor-68" d="M387.5,434.8c-0.9,0-1.8-0.2-2.7-0.5c-3.5-1.4-6.1-4.3-7.2-7.8c-1.8-6.2-0.6-16.4-0.2-19.4&#10;&#9;&#9;c0.8-5.9-1.1-13.7-1.1-13.8c0-0.2,0-0.4,0.1-0.5c0.1-0.2,0.2-0.3,0.4-0.3l15-3.3c0.2,0,0.4,0,0.6,0.1c0.2,0.1,0.2,0.3,0.2,0.6&#10;&#9;&#9;c-0.3,5.4,1.8,15.5,2.6,19.8l0.1,0.4c0.8,3.8,1.3,20-4.1,23.6C390.1,434.4,388.8,434.8,387.5,434.8z M377.8,393.6&#10;&#9;&#9;c0.5,2.1,1.6,8.5,1,13.6c-0.4,2.9-1.5,13,0.2,18.9c1,3.1,3.4,5.7,6.4,6.9c1.7,0.7,3.6,0.5,5.1-0.5c4.5-3,4.4-17.9,3.5-22.2&#10;&#9;&#9;l-0.1-0.4c-0.8-4.1-2.7-13.5-2.7-19.2L377.8,393.6z"/>
	<path class="st2_doctor-68" d="M356.4,205.6c-2.8-1.8-43.5-3-43.5-3s-2.7,135.4,0.7,194H334c0,0,20.3-87.5,16.8-118.5&#10;&#9;&#9;c0,0,22.4,87.1,23.2,121.2h23.1c0,0,3.4-79.9-5-115.3S356.4,205.6,356.4,205.6z"/>
	<path class="st2_doctor-68" d="M397.1,399.9H374c-0.4,0-0.7-0.3-0.7-0.6c-0.7-28.2-16.3-93.2-21.5-114.3c0.5,35.1-17,110.9-17.2,111.7&#10;&#9;&#9;c-0.1,0.3-0.3,0.5-0.6,0.5h-20.3c-0.3,0-0.6-0.3-0.7-0.6c-3.4-58-0.8-192.7-0.7-194c0-0.2,0.1-0.3,0.2-0.5c0.1-0.1,0.3-0.2,0.5-0.2&#10;&#9;&#9;c4.2,0.1,40.9,1.3,43.8,3.1c0.1,0.1,0.2,0.1,0.2,0.2c0.3,0.4,27.5,43.5,35.8,78.6s5,114.7,5,115.5&#10;&#9;&#9;C397.8,399.6,397.5,399.9,397.1,399.9z M374.7,398.6h21.9c0.3-7.6,2.9-81.3-5-114.5c-8-33.9-33.8-75.2-35.6-78&#10;&#9;&#9;c-2.6-1.2-26.9-2.3-42.4-2.8c-0.2,10.4-2.5,136.5,0.7,192.6h19.2c1.6-7.2,20-88.5,16.7-117.8c0-0.3,0.2-0.7,0.5-0.7&#10;&#9;&#9;c0.3-0.1,0.7,0.2,0.8,0.5C351.7,278.7,373.6,364.3,374.7,398.6L374.7,398.6z"/>
	<path class="st0_doctor-68" d="M387.2,119.8c-0.9-1.4-1.8-2.7-2.6-4.1c-2.9-5-5.3-10.3-7-15.8c-1.8-5.7-1.6-12-3.4-17.5&#10;&#9;&#9;c-2.4-7.3-10.7-13.3-17.9-15.3c-15.1-4.3-31.8,4.3-36.4,19.5c-1.1,3.7-1.3,7.7-1.4,11.6c-0.4,13.7-0.8,27.5-1.3,41.2&#10;&#9;&#9;c-0.4,12.8-2.4,25.4,5.3,36.5c6.7,9.8,18.5,15,30.2,16.5c17.1,2.2,36.2-3.9,45.3-18.6c5.1-8.4,6.6-18.6,4-28.1&#10;&#9;&#9;C399.3,136,392.8,128.1,387.2,119.8z"/>
	<path class="st2_doctor-68" d="M359.4,193.4c-2.2,0-4.5-0.1-6.7-0.4c-13.3-1.7-24.5-7.8-30.7-16.8c-6.7-9.7-6.2-20.2-5.6-31.4&#10;&#9;&#9;c0.1-1.8,0.2-3.7,0.2-5.5l1.3-41.2c0.1-3.9,0.2-7.9,1.4-11.8c4.6-15.2,21.7-24.3,37.3-19.9c7,2,15.7,7.8,18.3,15.8&#10;&#9;&#9;c0.8,2.9,1.4,5.9,1.7,8.9c0.3,2.9,0.9,5.8,1.6,8.7c1.7,5.5,4.1,10.7,7,15.7c0.8,1.3,1.6,2.6,2.6,4.1l0,0c1.2,1.8,2.4,3.5,3.6,5.2&#10;&#9;&#9;c4.5,6.4,9.1,13.1,11.3,20.8c2.7,9.7,1.2,20.1-4,28.7C390.2,187.8,373.9,193.4,359.4,193.4z M348.5,66.6c-12.4,0-24.2,8-27.9,20.1&#10;&#9;&#9;c-1.1,3.7-1.2,7.6-1.4,11.4l-1.3,41.2c-0.1,1.9-0.1,3.7-0.2,5.5c-0.5,10.9-1,21.2,5.4,30.6c6,8.7,16.8,14.6,29.8,16.2&#10;&#9;&#9;c15.4,2,35.1-2.9,44.6-18.3c5-8.3,6.4-18.2,3.9-27.6c-2.1-7.5-6.7-14-11.1-20.4c-1.2-1.7-2.4-3.5-3.6-5.2l0,0&#10;&#9;&#9;c-1-1.5-1.9-2.9-2.6-4.2c-3-5-5.4-10.4-7.1-16c-0.8-2.9-1.4-5.9-1.7-8.9c-0.3-2.9-0.9-5.8-1.7-8.6c-2.3-7.2-10.5-12.9-17.4-14.9&#10;&#9;&#9;C353.7,66.9,351.1,66.6,348.5,66.6z"/>
	<path class="st0_doctor-68" d="M343.2,131.4c0,0-19.6,11-23.5,30.1s0.5,61.8,0.5,61.8l48.6-2c0,0-4.8-53.9,0-69s4.6-19.3,0-20.8&#10;&#9;&#9;S351.8,121.9,343.2,131.4z"/>
	<path class="st2_doctor-68" d="M320.3,223.9c-0.4,0-0.6-0.3-0.7-0.6c0-0.4-4.2-43-0.5-62c3.7-18.4,22.1-29.6,23.7-30.5&#10;&#9;&#9;c7.5-8.2,17.9-3.7,23.5-1.2c1.1,0.5,2,0.9,2.8,1.1c5.2,1.7,5.3,6.3,0.4,21.7c-4.7,14.8,0,68.2,0,68.7c0,0.2,0,0.4-0.2,0.5&#10;&#9;&#9;c-0.1,0.1-0.3,0.2-0.5,0.2L320.3,223.9L320.3,223.9z M353.5,127.5c-3.7-0.1-7.3,1.5-9.7,4.3c0,0.1-0.1,0.1-0.2,0.1&#10;&#9;&#9;c-0.2,0.1-19.4,11.1-23.1,29.6c-3.5,17.4-0.1,55.5,0.4,60.9l47.2-2c-0.6-6.7-4.4-54.2,0.1-68.5c4.9-15.7,4.2-18.8,0.5-20&#10;&#9;&#9;c-0.8-0.3-1.8-0.7-2.9-1.2C362.5,129.5,358,127.5,353.5,127.5z M343.2,131.4L343.2,131.4z"/>
	<path class="st3_doctor-68 targetColor" d="M343.8,125c0,0,1.5,2.2-2,9.8c-3.3,6.2-6.7,34.2-7.4,43.8c-1.4,19.1-6.4,144.2-6.4,144.2l-33.2-2.4&#10;&#9;&#9;c0,0,14.7-143.2,18.1-159.9C318.8,131.6,343.8,125,343.8,125z" style="fill: rgb(104, 225, 253);"/>
	<path class="st3_doctor-68 targetColor" d="M338.3,127.2c0,0-15.9,5.8-22.2,11.8s-34,57.3-34,57.3l18,9.5l21.8-26.4" style="fill: rgb(104, 225, 253);"/>
	<path class="st2_doctor-68" d="M306.5,197c-0.3,0-0.7-0.1-1-1c-0.1-0.4,0.1-0.7,0.5-0.8c0.1,0,0.3,0,0.4,0c1.6-3.9,5.3-26.4,7.3-40.6&#10;&#9;&#9;c0-0.4,0.4-0.6,0.7-0.6c0,0,0,0,0,0c0.4,0.1,0.6,0.4,0.6,0.8C309,196.7,307.2,196.9,306.5,197L306.5,197z"/>
	<path class="st0_doctor-68" d="M341.8,119.9l-0.1,14.9c0,0,1.5,8.3,10.5,5.8c5.4-1.6,9.8-5.5,12-10.7l-1-25.7c-1.2-4.5-1.7-9.2-1.5-13.8&#10;&#9;&#9;c-11-0.2-19.6-8.5-19.6-8.5s-3.8,5.7-5.4,7.5c-1.3,1.3-2.5,2.9-3.4,4.5c-1.5,2.9-1.5,6.4-1.4,9.6c0,3.8,0.4,7.5,1.1,11.2&#10;&#9;&#9;C334.5,121.6,341.8,119.9,341.8,119.9z"/>
	<path class="st2_doctor-68" d="M349,141.7c-1.5,0-3-0.4-4.2-1.1c-1.9-1.3-3.3-3.4-3.8-5.7l0.1-14.2c-2,0.3-3.9-0.1-5.6-1.1&#10;&#9;&#9;c-1.7-1.1-2.8-2.9-3.1-4.8c-0.7-3.7-1.1-7.5-1.1-11.3c-0.1-3.1-0.1-6.9,1.5-9.9c1-1.7,2.1-3.2,3.5-4.6c1.6-1.7,5.3-7.3,5.4-7.4&#10;&#9;&#9;c0.1-0.2,0.3-0.3,0.5-0.3c0.2,0,0.4,0,0.5,0.2c0.1,0.1,8.6,8.1,19.2,8.3c0.2,0,0.4,0.1,0.5,0.2c0.1,0.1,0.2,0.3,0.2,0.5&#10;&#9;&#9;c-0.2,4.2,0.2,8.4,1.2,12.5c0.1,0.4,0.2,0.9,0.3,1.3c0,0.2,1,25.7,1,25.7c0,0.1,0,0.2,0,0.3c-2.3,5.4-6.8,9.5-12.5,11.1&#10;&#9;&#9;C351.4,141.5,350.2,141.7,349,141.7z M342.4,134.8c0.5,1.9,1.6,3.5,3.2,4.6c1.7,1.1,3.9,1.2,6.5,0.5c5.1-1.5,9.4-5.2,11.5-10.1&#10;&#9;&#9;c-1-25.6-1-25.6-1-25.6c0-0.3-0.1-0.7-0.2-1c-1-4-1.4-8.1-1.3-12.2c-9.3-0.4-16.7-6.2-18.8-8.1c-1.6,2.4-3.2,4.7-5,6.9&#10;&#9;&#9;c-1.3,1.3-2.4,2.8-3.3,4.3c-1.5,2.7-1.4,6.2-1.3,9.3c0,3.7,0.4,7.4,1.1,11.1c0.2,1.6,1.1,3.1,2.5,4c1.7,0.9,3.6,1.2,5.5,0.8&#10;&#9;&#9;c0.2,0,0.4,0,0.6,0.1c0.2,0.1,0.3,0.3,0.2,0.5L342.4,134.8L342.4,134.8z"/>
	<path class="st2_doctor-68" d="M341.9,127.2c0,0,6,0.3,9.9-3.8s3.3-8.1,3.3-8.1s-6.5,4.4-13.3,4.5L341.9,127.2z"/>
	<path class="st2_doctor-68" d="M342.2,127.9h-0.3c-0.4,0-0.6-0.3-0.6-0.7l-0.1-7.3c0-0.4,0.3-0.6,0.6-0.7c0,0,0,0,0,0&#10;&#9;&#9;c6.5-0.2,12.9-4.4,13-4.4c0.2-0.1,0.4-0.1,0.6,0c0.2,0.1,0.4,0.3,0.4,0.5c0,0.2,0.6,4.4-3.5,8.6&#10;&#9;&#9;C348.7,127.6,343.5,127.9,342.2,127.9z M342.5,120.5l0.1,6c1.6-0.1,5.9-0.5,8.8-3.6c1.8-1.7,2.9-4,3.1-6.4&#10;&#9;&#9;C350.8,118.8,346.7,120.1,342.5,120.5z"/>
	<path class="st0_doctor-68" d="M347.1,98.6c0,0-4.8,7.1-3.6,8.4s4.3,0.4,4.3,0.4"/>
	<path class="st2_doctor-68" d="M345.6,108.3c-1,0.1-2-0.3-2.7-0.9c-1.3-1.4,1.7-6.4,3.6-9.2c0.2-0.3,0.6-0.4,0.9-0.2c0.3,0.2,0.4,0.6,0.2,0.9&#10;&#9;&#9;c0,0,0,0,0,0c-2.3,3.4-4,6.9-3.7,7.6c0.6,0.7,2.7,0.4,3.6,0.2c0.4-0.1,0.7,0.2,0.8,0.6c0,0.3-0.1,0.6-0.4,0.7&#10;&#9;&#9;C347.2,108.2,346.4,108.3,345.6,108.3z"/>
	
		<ellipse transform="matrix(3.925982e-02 -0.9992 0.9992 3.925982e-02 229.709 433.4755)" class="st2_doctor-68" cx="340.3" cy="97.3" rx="1.5" ry="0.8"/>
	
		<ellipse transform="matrix(3.925982e-02 -0.9992 0.9992 3.925982e-02 241.9954 443.4408)" class="st2_doctor-68" cx="351.6" cy="95.9" rx="1.5" ry="0.8"/>
	<path class="st0_doctor-68" d="M343.8,111.1l3.8-1c0,0,0.8,5.6-1.4,6S343.8,111.1,343.8,111.1z"/>
	<path class="st2_doctor-68" d="M346,116.9c-0.4,0-0.8-0.1-1.1-0.4c-1.5-1.2-1.8-4.9-1.8-5.4c0-0.3,0.2-0.6,0.5-0.7l3.8-1c0.2,0,0.4,0,0.5,0.1&#10;&#9;&#9;c0.2,0.1,0.3,0.3,0.3,0.5c0.1,1,0.7,6.2-1.9,6.8C346.3,116.9,346.1,116.9,346,116.9z M344.5,111.6c0.1,1.5,0.6,3.3,1.2,3.8&#10;&#9;&#9;c0.1,0.1,0.2,0.1,0.4,0.1c0.9-0.2,1.1-2.6,0.9-4.6L344.5,111.6z"/>
	<path class="st0_doctor-68" d="M358.3,96.5c0.6-1.8,1.5-3.5,2.8-5c1.4-1.4,3.5-2.1,5.3-1.3c1.9,0.9,2.5,3.4,2.5,5.5c-0.1,2.4-0.5,4.8-1.3,7.1&#10;&#9;&#9;c-0.3,1.4-1,2.7-2,3.7c-1,1-2.6,1.3-3.9,0.6"/>
	<path class="st2_doctor-68" d="M363.1,108.2c-0.7,0-1.3-0.2-1.8-0.6c-0.3-0.2-0.5-0.6-0.3-0.9c0.2-0.3,0.6-0.5,0.9-0.3c0,0,0.1,0,0.1,0.1&#10;&#9;&#9;c1,0.5,2.3,0.3,3.1-0.5c0.9-1,1.5-2.1,1.9-3.4c0.8-2.2,1.2-4.6,1.3-6.9c0-0.9-0.1-3.9-2.2-4.9c-1.5-0.7-3.4,0-4.5,1.1&#10;&#9;&#9;c-1.2,1.4-2.1,3-2.6,4.8c-0.1,0.4-0.5,0.5-0.9,0.4c0,0,0,0,0,0c-0.4-0.1-0.5-0.5-0.4-0.9c0.6-1.9,1.6-3.7,2.9-5.3&#10;&#9;&#9;c1.4-1.4,3.9-2.5,6.1-1.4c2.6,1.3,2.9,4.7,2.9,6.1c0,2.5-0.5,5-1.3,7.3c-0.4,1.5-1.1,2.9-2.2,4&#10;&#9;&#9;C365.2,107.8,364.2,108.2,363.1,108.2z"/>
	<path class="st3_doctor-68 targetColor" d="M365.1,127c0,0-4.9,39.5-4.9,60.4c0,24-0.4,137.5-0.4,137.5l54.9-2.3c0,0-22.3-68.4-24.8-96.2&#10;&#9;&#9;c-1.6-17.6-2.9-65.1-2.2-77.6S365.1,127,365.1,127z" style="fill: rgb(104, 225, 253);"/>
	<polygon class="st0_doctor-68" points="310.4,187.4 334.6,241.6 287.7,241.6 264.1,188.6 &#9;"/>
	<path class="st2_doctor-68" d="M334.6,242.3h-46.9c-0.3,0-0.5-0.2-0.6-0.4l-23.6-53c-0.1-0.2-0.1-0.5,0-0.6c0.1-0.2,0.3-0.3,0.6-0.3l46.3-1.2&#10;&#9;&#9;c0.3,0,0.5,0.2,0.6,0.4l24.2,54.2c0.1,0.2,0.1,0.5,0,0.6C335.1,242.1,334.9,242.3,334.6,242.3z M288.1,240.9h45.4L310,188.1&#10;&#9;&#9;l-44.8,1.2L288.1,240.9z"/>
	<path class="st0_doctor-68" d="M352.6,233.7c-9.9,0.4-20.2-2.1-29.6,1.6l-6.4,2.5c-0.1-1.4,1-2.7,2.3-3.4c1.3-0.6,2.5-1.4,3.7-2.2l-5.4,2.6&#10;&#9;&#9;c-1,0.5-2.6,0.9-3.2-0.1c2.1-2.1,4.5-3.9,7-5.4c-1.9,0.9-4,1.8-6,2.5c-1.3,0.4-3,0.8-3.9-0.3c2.2-1.7,4.7-3.1,7.4-4l-5.1,1.5&#10;&#9;&#9;c-0.6,0.2-1.2,0.3-1.8,0.2c-0.6-0.1-1.1-0.6-1.2-1.3c0.1-0.5,0.5-1,0.9-1.2c3.4-2.6,7.4-4.4,11.6-5.3c-0.4-1.1-2.5-6.8-1.8-7.8&#10;&#9;&#9;s3.6,4.3,8.1,4.8s19.7,1.2,19.7,1.2"/>
	<path class="st2_doctor-68" d="M316.6,238.4c-0.1,0-0.3,0-0.4-0.1c-0.2-0.1-0.3-0.3-0.3-0.5c0-0.8,0.1-1.5,0.6-2.1c-1.4,0.4-2.6,0.1-3.1-0.8&#10;&#9;&#9;c-0.1-0.3-0.1-0.6,0.1-0.8c0.7-0.7,1.4-1.4,2.2-2l-0.5,0.2c-2.1,0.7-3.7,0.6-4.6-0.5c-0.1-0.1-0.2-0.3-0.2-0.5&#10;&#9;&#9;c0-0.2,0.1-0.4,0.3-0.5c0.4-0.3,0.8-0.6,1.3-0.9c-0.2,0-0.3,0-0.5,0c-1-0.1-1.7-1-1.7-2c0.1-0.7,0.5-1.4,1.2-1.7&#10;&#9;&#9;c3.3-2.5,7.1-4.3,11.2-5.3c-2.3-6.5-1.7-7.4-1.4-7.7c0.2-0.2,0.4-0.4,0.7-0.4c0.7,0,1.3,0.5,2.3,1.5c1.4,1.4,3.3,3.2,5.7,3.5&#10;&#9;&#9;c4.4,0.5,19.5,1.2,19.6,1.2c0.4,0,0.7,0.3,0.7,0.7c0,0,0,0,0,0c0,0.4-0.3,0.7-0.7,0.7c-0.6,0-15.3-0.7-19.7-1.2&#10;&#9;&#9;c-2.9-0.3-5.1-2.5-6.5-3.9c-0.3-0.3-0.7-0.7-1-0.9c0,0.8,0.4,2.8,1.9,6.9c0.1,0.2,0.1,0.4,0,0.6c-0.1,0.2-0.3,0.3-0.5,0.3&#10;&#9;&#9;c-4.1,0.9-8,2.7-11.4,5.2c-0.3,0.2-0.6,0.5-0.6,0.8s0.3,0.5,0.6,0.5c0.5,0,1,0,1.5-0.2l5.1-1.5c0.4-0.1,0.7,0.1,0.9,0.4&#10;&#9;&#9;c0.1,0.4-0.1,0.7-0.4,0.9c-2.3,0.8-4.5,1.9-6.5,3.3c0.8,0.1,1.7,0,2.4-0.3c2-0.7,4-1.5,5.9-2.4c0.3-0.2,0.7,0,0.9,0.3&#10;&#9;&#9;c0.2,0.3,0.1,0.7-0.2,0.9c-2.3,1.4-4.4,3-6.3,4.8c0.6,0,1.3-0.1,1.8-0.4l5.4-2.6c0.3-0.1,0.7,0,0.9,0.2c0.2,0.3,0.1,0.7-0.1,0.9&#10;&#9;&#9;c-0.8,0.7-1.6,1.2-2.5,1.6c-0.4,0.2-0.9,0.4-1.3,0.7c-0.7,0.4-1.3,1-1.7,1.8l5.2-2c6.5-2.5,13.6-2.2,20.4-1.8&#10;&#9;&#9;c3.1,0.2,6.3,0.3,9.4,0.2c0.4,0,0.7,0.3,0.7,0.7c0,0.4-0.3,0.7-0.6,0.7c0,0,0,0,0,0c-3.1,0.1-6.4-0.1-9.5-0.2&#10;&#9;&#9;c-6.7-0.3-13.6-0.7-19.9,1.7l-6.4,2.5C316.8,238.4,316.7,238.4,316.6,238.4z"/>
	<path class="st3_doctor-68 targetColor" d="M386.8,142.4c0,0,36.4,91.1,22.9,95.7c-5.5,1.9-66.6,3.5-66.6,3.5l-1.4-24.3l30.6-4.2L386.8,142.4z" style="fill: rgb(104, 225, 253);"/>
	<path class="st2_doctor-68" d="M383.8,212.8c-0.4,0-0.6-0.3-0.7-0.6l-5.1-58.7c0-0.4,0.2-0.7,0.6-0.7c0,0,0,0,0,0c0.4,0,0.7,0.2,0.7,0.6&#10;&#9;&#9;l5.1,58.7C384.6,212.4,384.3,212.8,383.8,212.8L383.8,212.8z"/>
	<path class="st2_doctor-68" d="M351.5,243.8c-0.4,0-0.7-0.3-0.7-0.7c0-0.4,0.3-0.7,0.7-0.7l41.7-3.1c0.4-0.1,0.7,0.2,0.8,0.6&#10;&#9;&#9;c0.1,0.4-0.2,0.7-0.6,0.8c0,0-0.1,0-0.1,0L351.5,243.8L351.5,243.8z"/>
	<path class="st0_doctor-68" d="M275.8,225.4c0.3,0.9,0.6,1.7,0.9,2.4c0.5,1.8,1.4,3.4,2.7,4.7c1.6,1.3,3.5,2.1,5.5,2.3&#10;&#9;&#9;c2.2,0.4,4.4,0.8,6.6,1.2c1.1,0.3,2.3,0.3,3.4-0.2c0.2-0.1,0.4-0.3,0.4-0.5c0-0.3-0.2-0.7-0.4-0.9c-2.4-2.2-6.3-2-9.1-3.7&#10;&#9;&#9;c2.3,0.6,4.7,0.9,7.1,0.6c1.2-0.1,2.5-0.4,3.1-1.5c-3-2.1-7.1-1.3-10.4-2.8c2.9,0.5,5.8,0.2,8.5-1c0.5-0.2,1-0.8,0.6-1.1&#10;&#9;&#9;c-0.2-0.1-0.3-0.2-0.5-0.2l-10.5-0.6c2,0,4-0.5,5.8-1.4c1-0.5,2-1.2,2.1-2.3c0-0.2,0-0.4-0.1-0.6c-0.3-0.2-0.6-0.3-0.9-0.2&#10;&#9;&#9;c-1.3,0.2-6.8,1-8.3,1.2c-1.2,0.4-2.5,0.2-3.6-0.4c-0.5-0.4-0.9-1-1.2-1.6c-1.2,0.9-2,2.4-2.2,3.9&#10;&#9;&#9;C275.3,223.8,275.5,224.6,275.8,225.4z"/>
	<path class="st2_doctor-68" d="M293.2,237c-0.6,0-1.2-0.1-1.8-0.2c-2.2-0.4-4.4-0.8-6.6-1.2c-2.2-0.2-4.2-1.1-5.9-2.5c-1.3-1.4-2.3-3.1-2.9-5&#10;&#9;&#9;c-0.1-0.3-0.2-0.6-0.4-1s-0.4-1-0.5-1.4l0,0c-0.3-0.9-0.5-1.8-0.5-2.7c0.2-1.7,1.1-3.3,2.5-4.4c0.2-0.1,0.4-0.2,0.6-0.1&#10;&#9;&#9;c0.2,0,0.4,0.2,0.5,0.3c0.2,0.5,0.6,1,1,1.4c1,0.5,2.1,0.6,3.1,0.3c1.1-0.2,4.7-0.7,6.9-1l1.4-0.2c0.5-0.1,1.1,0,1.5,0.4&#10;&#9;&#9;c0.2,0.3,0.3,0.7,0.3,1.1c-0.1,0.8-0.5,1.9-2.4,2.8c-0.3,0.1-0.6,0.3-0.9,0.4l5.2,0.3c0.4,0,0.7,0.1,1,0.4c0.3,0.3,0.4,0.6,0.3,1&#10;&#9;&#9;c-0.2,0.6-0.6,1-1.1,1.3c-0.9,0.4-1.9,0.7-2.9,0.9c1.7,0.2,3.4,0.7,4.9,1.7c0.3,0.2,0.4,0.6,0.2,0.9c-0.6,1.1-1.8,1.7-3.7,1.8&#10;&#9;&#9;c-0.3,0-0.7,0.1-1,0.1c1.2,0.4,2.4,1,3.4,1.8c0.5,0.3,0.7,0.9,0.6,1.5c-0.1,0.4-0.3,0.8-0.7,1C294.6,236.9,293.9,237.1,293.2,237z&#10;&#9;&#9; M276.4,225.2c0.2,0.5,0.3,0.9,0.5,1.4s0.3,0.7,0.4,1c0.5,1.7,1.3,3.2,2.5,4.5c1.5,1.2,3.3,1.9,5.1,2.1c2.2,0.4,4.4,0.8,6.7,1.2&#10;&#9;&#9;c0.9,0.3,2,0.3,2.9-0.1l0.1-0.1c0,0-0.1-0.1-0.2-0.2c-1.4-1-3-1.7-4.7-2c-1.5-0.3-3-0.9-4.3-1.6c-0.3-0.2-0.4-0.6-0.2-1&#10;&#9;&#9;c0.2-0.2,0.5-0.3,0.7-0.3c2.2,0.6,4.5,0.8,6.8,0.6c0.8,0,1.5-0.2,2.1-0.6c-1.5-0.7-3.1-1.1-4.7-1.2c-1.7-0.1-3.3-0.5-4.9-1.2&#10;&#9;&#9;c-0.3-0.1-0.5-0.5-0.4-0.9c0.1-0.3,0.5-0.5,0.8-0.4c2.7,0.5,5.5,0.2,8.1-0.9l-10.1-0.6c-0.4,0-0.7-0.3-0.6-0.7&#10;&#9;&#9;c0-0.4,0.3-0.7,0.7-0.7c1.9,0,3.8-0.5,5.5-1.3c0.7-0.4,1.6-0.9,1.7-1.7c0.1,0,0,0-0.3,0l-1.4,0.2c-2.1,0.3-5.7,0.8-6.8,1&#10;&#9;&#9;c-1.4,0.4-2.9,0.2-4.2-0.5c-0.4-0.3-0.7-0.6-0.9-1c-0.7,0.7-1.2,1.7-1.3,2.8C276,223.8,276.2,224.5,276.4,225.2L276.4,225.2z"/>
	<path class="st2_doctor-68" d="M341.7,218.1c-0.4,0-0.7-0.3-0.6-0.7c0-0.3,0.3-0.6,0.6-0.6l47.3-5.2c0.4-0.1,0.7,0.2,0.8,0.6c0,0,0,0,0,0&#10;&#9;&#9;c0,0.4-0.2,0.7-0.6,0.8L341.7,218.1L341.7,218.1z"/>
	<path class="st2_doctor-68" d="M380,298.1c-2.8,0-5.6-1.2-7.5-3.3c-4.6-5.4-3.2-23.8-3.2-24.6c0-0.4,0.3-0.6,0.7-0.6h22.1&#10;&#9;&#9;c0.4,0,0.7,0.3,0.7,0.7c0,0,0,0,0,0c0,0.4-0.3,0.7-0.7,0.7l0,0h-21.4c-0.2,3.3-0.9,18.5,2.9,23c2.4,2.6,6,3.5,9.3,2.3&#10;&#9;&#9;c2.6-0.9,7-4,7.2-13.9c0-0.4,0.3-0.7,0.7-0.7l0,0c0.4,0,0.7,0.3,0.7,0.7c0,0,0,0,0,0c-0.2,10.8-5.2,14.1-8.1,15.2&#10;&#9;&#9;C382.3,297.9,381.1,298.1,380,298.1z"/>
	<path class="st2_doctor-68" d="M313.2,294.6c-2.4,0-4.6-1.3-5.9-3.4c-3.5-5.4-2.5-23.7-2.4-24.5c0-0.4,0.3-0.7,0.7-0.6h16.9&#10;&#9;&#9;c0.4,0,0.7,0.3,0.7,0.7l0,0c0,0.4-0.3,0.7-0.7,0.7c0,0,0,0,0,0h-16.3c-0.1,3.3-0.6,18.5,2.2,23c1.3,2.1,3.7,3.1,6.1,2.5&#10;&#9;&#9;c3.8-1.1,6.1-6.4,6.2-14.2c0-0.4,0.3-0.7,0.7-0.7c0,0,0,0,0,0c0.4,0,0.7,0.3,0.7,0.7c0,0,0,0,0,0c-0.2,12.2-5.1,14.9-7.2,15.5&#10;&#9;&#9;C314.4,294.6,313.8,294.6,313.2,294.6z"/>
	<circle class="st2_doctor-68" cx="364.3" cy="162.4" r="4.1"/>
	<path class="st2_doctor-68" d="M364.3,167.2c-2.7,0-4.8-2.1-4.8-4.8s2.1-4.8,4.8-4.8c2.7,0,4.8,2.1,4.8,4.8c0,0,0,0,0,0&#10;&#9;&#9;C369.1,165,366.9,167.2,364.3,167.2z M364.3,158.9c-1.9,0-3.5,1.6-3.5,3.5s1.6,3.5,3.5,3.5c1.9,0,3.5-1.6,3.5-3.5&#10;&#9;&#9;S366.2,158.9,364.3,158.9L364.3,158.9z"/>
	<circle class="st2_doctor-68" cx="366.1" cy="161.2" r="3.3"/>
	<path class="st2_doctor-68" d="M366.1,165.1c-2.2,0-4-1.8-4-4s1.8-4,4-4s4,1.8,4,4S368.4,165.1,366.1,165.1z M366.1,158.5&#10;&#9;&#9;c-1.5,0-2.6,1.2-2.6,2.6c0,1.5,1.2,2.6,2.6,2.6c1.5,0,2.6-1.2,2.6-2.6c0,0,0,0,0,0C368.8,159.7,367.6,158.5,366.1,158.5&#10;&#9;&#9;L366.1,158.5z"/>
	<path class="st2_doctor-68" d="M332.8,151L332.8,151c-0.4,0-0.7-0.4-0.7-0.7c0,0,0,0,0,0c0.1-1,2.7-24.7,13.8-27c0.4-0.1,0.7,0.2,0.8,0.5&#10;&#9;&#9;s-0.2,0.7-0.5,0.8c-10.1,2.1-12.8,25.6-12.8,25.8C333.4,150.7,333.1,151,332.8,151z"/>
	<path class="st2_doctor-68" d="M365.1,161L365.1,161c-0.5,0-0.8-0.4-0.7-0.8c2.8-24.6-0.7-34.2-0.8-34.3c-0.2-0.4,0-0.8,0.4-1c0,0,0,0,0,0&#10;&#9;&#9;c0.4-0.2,0.8,0,1,0.4c0,0,0,0,0,0.1c0.1,0.4,3.7,10,0.8,35C365.9,160.7,365.5,161,365.1,161C365.1,161,365.1,161,365.1,161z"/>
	<path class="st2_doctor-68" d="M339.7,178c-0.4,0-0.8-0.3-0.8-0.8s0.3-0.8,0.8-0.8c1.3,0,2.4-1.1,2.4-2.4v-14.5c0-4.7-3.8-8.5-8.5-8.6H332&#10;&#9;&#9;c-4.7,0-8.5,3.8-8.5,8.6v14.5c0,1.3,1.1,2.4,2.4,2.4c0.4,0,0.8,0.3,0.8,0.8s-0.3,0.8-0.8,0.8c-2.1,0-3.9-1.7-3.9-3.9v-14.5&#10;&#9;&#9;c0-5.5,4.5-10,10-10.1h1.6c5.5,0,10,4.5,10,10.1v14.5C343.5,176.3,341.8,178,339.7,178z"/>
	<path class="st2_doctor-68" d="M326.8,175L326.8,175c0.4,0,0.8,0.4,0.8,0.8v3.1c0,0.4-0.4,0.8-0.8,0.8h0c-0.4,0-0.8-0.4-0.8-0.8v-3.1&#10;&#9;&#9;C326,175.4,326.3,175,326.8,175z"/>
	<path class="st2_doctor-68" d="M326.8,180.3c-0.8,0-1.5-0.6-1.5-1.4c0,0,0,0,0,0v-3c-0.1-0.8,0.5-1.5,1.3-1.6c0.8-0.1,1.5,0.5,1.6,1.3&#10;&#9;&#9;c0,0.1,0,0.2,0,0.2v3C328.2,179.7,327.6,180.3,326.8,180.3L326.8,180.3z M326.8,175.7c-0.1,0-0.1,0-0.1,0.1c0,0,0,0,0,0v3&#10;&#9;&#9;c0,0.1,0.3,0.1,0.3,0v-3C326.9,175.7,326.9,175.7,326.8,175.7z"/>
	<path class="st2_doctor-68" d="M339.4,175L339.4,175c0.4,0,0.8,0.4,0.8,0.8v3.1c0,0.4-0.4,0.8-0.8,0.8h0c-0.4,0-0.8-0.4-0.8-0.8v-3.1&#10;&#9;&#9;C338.6,175.4,339,175,339.4,175z"/>
	<path class="st2_doctor-68" d="M339.4,180.3c-0.8,0-1.5-0.6-1.5-1.4c0,0,0,0,0,0v-3c-0.1-0.8,0.5-1.5,1.3-1.6c0.8-0.1,1.5,0.5,1.6,1.3&#10;&#9;&#9;c0,0.1,0,0.2,0,0.2v3C340.9,179.7,340.2,180.3,339.4,180.3C339.4,180.3,339.4,180.3,339.4,180.3z M339.4,175.7&#10;&#9;&#9;c-0.1,0-0.1,0.1-0.1,0.1c0,0,0,0,0,0v3c0,0.1,0.3,0.1,0.3,0v-3C339.5,175.7,339.5,175.7,339.4,175.7&#10;&#9;&#9;C339.4,175.7,339.4,175.7,339.4,175.7z"/>
	<path class="st0_doctor-68" d="M366.1,165.2H366c-1.9-0.3-3.1-1-3.6-2.2c-0.9-1.9,0.4-4.1,0.5-4.2c0.2-0.3,0.7-0.4,1-0.2&#10;&#9;&#9;c0.3,0.2,0.4,0.6,0.2,0.9c-0.5,0.8-0.7,1.9-0.4,2.8c0.3,0.7,1.2,1.1,2.5,1.3c0.4,0.1,0.7,0.4,0.6,0.9&#10;&#9;&#9;C366.8,164.9,366.5,165.2,366.1,165.2z"/>
	<path class="st2_doctor-68" d="M337.3,106.2c-4.9,0-8.9-4-8.9-8.9c0-4.9,4-8.9,8.9-8.9c4.9,0,8.9,4,8.9,8.9&#10;&#9;&#9;C346.2,102.2,342.2,106.2,337.3,106.2z M337.3,89.8c-4.1,0-7.5,3.4-7.5,7.5s3.4,7.5,7.5,7.5s7.5-3.4,7.5-7.5S341.5,89.8,337.3,89.8&#10;&#9;&#9;L337.3,89.8z"/>
	<path class="st2_doctor-68" d="M354.2,104.8c-4.9,0-8.9-4-8.9-8.9s4-8.9,8.9-8.9c4.9,0,8.9,4,8.9,8.9l0,0&#10;&#9;&#9;C363.1,100.8,359.1,104.7,354.2,104.8z M354.2,88.4c-4.1,0-7.5,3.4-7.5,7.5s3.4,7.5,7.5,7.5s7.5-3.4,7.5-7.5&#10;&#9;&#9;C361.7,91.7,358.4,88.4,354.2,88.4z"/>
	<polygon class="st2_doctor-68" points="277.5,186.5 281.5,193.6 301.4,192.8 297.6,185.9 &#9;"/>
	<path class="st2_doctor-68" d="M281.5,194.2c-0.2,0-0.4-0.1-0.6-0.3l-4-7c-0.1-0.2-0.1-0.4,0-0.6c0.1-0.2,0.3-0.3,0.5-0.3l20.1-0.7&#10;&#9;&#9;c0.3,0,0.5,0.1,0.6,0.3l3.7,6.9c0.1,0.2,0.1,0.4,0,0.6c-0.1,0.2-0.3,0.3-0.5,0.3L281.5,194.2L281.5,194.2z M278.6,187.2l3.3,5.7&#10;&#9;&#9;l18.3-0.7l-3-5.6L278.6,187.2z"/>
	<path class="st2_doctor-68" d="M287.8,182.9c-0.8-0.3-1.6-0.3-2.4-0.1c-1,0.4-1.7,1.4-1.7,2.5c0,0.7,0.2,1.3,0.6,1.9c0.3,0.6,0.8,1.2,1.3,1.6&#10;&#9;&#9;c1.8,1.4,5.9,1.3,5.7-1.9c-0.1-0.8-0.4-1.7-0.9-2.3C289.8,183.8,288.9,183.1,287.8,182.9z"/>
	<path class="st2_doctor-68" d="M288.3,190.4c-1.1,0-2.2-0.3-3.1-1c-0.6-0.5-1.1-1.1-1.5-1.8c-0.4-0.7-0.6-1.4-0.6-2.2c0-1.4,0.9-2.6,2.1-3.1&#10;&#9;&#9;c0.9-0.3,1.9-0.3,2.8,0.1l0,0c1.2,0.3,2.2,1,3,2c0.6,0.8,0.9,1.7,1,2.7c0.1,1.2-0.5,2.4-1.6,3C289.7,190.3,289,190.4,288.3,190.4z&#10;&#9;&#9; M286.5,183.3c-0.3,0-0.6,0-0.8,0.1c-0.8,0.3-1.3,1-1.3,1.9c0,0.6,0.2,1.1,0.5,1.6c0.3,0.5,0.6,1,1.1,1.4c1.1,0.8,2.5,1,3.8,0.4&#10;&#9;&#9;c0.6-0.3,1-1,0.9-1.7c-0.1-0.7-0.4-1.4-0.8-2c-0.5-0.8-1.3-1.3-2.2-1.5l0,0C287.3,183.4,286.9,183.3,286.5,183.3z"/>
</g>
</svg>